<svg aria-hidden="true" style="position: absolute; width: 0; height: 0; overflow: hidden;" version="1.1" xmlns="http://www.w3.org/2000/svg" xmlns:xlink="http://www.w3.org/1999/xlink">
<defs>
<symbol id="twitter" viewBox="0 0 38 32">
<path d="M38.4 4.091c-1.318 0.6-2.846 1.037-4.449 1.232l-0.076 0.008c1.63-0.986 2.855-2.501 3.448-4.303l0.016-0.056c-1.44 0.87-3.116 1.533-4.902 1.895l-0.101 0.017c-1.439-1.533-3.478-2.488-5.74-2.488-0.004 0-0.007 0-0.011 0h0.001c-5.086 0-8.824 4.746-7.675 9.672-6.562-0.338-12.335-3.457-16.205-8.19l-0.032-0.040c-0.671 1.135-1.067 2.502-1.067 3.961 0 2.722 1.379 5.122 3.476 6.539l0.028 0.018c-1.316-0.043-2.538-0.403-3.606-1.006l0.039 0.020c-0.086 3.65 2.53 7.064 6.318 7.824-0.621 0.175-1.333 0.276-2.070 0.276-0.527 0-1.041-0.052-1.539-0.15l0.050 0.008c1.037 3.155 3.927 5.405 7.352 5.47l0.008 0c-2.664 2.105-6.072 3.377-9.776 3.377-0.665 0-1.321-0.041-1.965-0.121l0.077 0.008c3.408 2.219 7.578 3.539 12.056 3.539 0.007 0 0.014 0 0.022 0h-0.001c14.627 0 22.891-12.354 22.392-23.434 1.548-1.128 2.852-2.479 3.895-4.022l0.036-0.057z"></path>
</symbol>
<symbol id="logo" viewBox="0 0 61 32">
<path d="M60.082 5.878l-15.674 26.122-15.673-26.122h31.347zM15.673 0l15.674 26.122h-31.347l15.673-26.122z"></path>
</symbol>
<symbol id="linkedin" viewBox="0 0 32 32">
<path d="M28.8 0h-25.6c-1.76 0-3.2 1.44-3.2 3.2v25.6c0 1.76 1.44 3.2 3.2 3.2h25.6c1.76 0 3.2-1.44 3.2-3.2v-25.6c0-1.76-1.44-3.2-3.2-3.2zM9.6 27.2h-4.8v-14.4h4.8v14.4zM7.2 10.080c-1.6 0-2.88-1.28-2.88-2.88s1.28-2.88 2.88-2.88c1.6 0 2.88 1.28 2.88 2.88s-1.28 2.88-2.88 2.88zM27.2 27.2h-4.8v-8.48c0-1.28-1.12-2.4-2.4-2.4s-2.4 1.12-2.4 2.4v8.48h-4.8v-14.4h4.8v1.92c0.8-1.28 2.56-2.24 4-2.24 3.040 0 5.6 2.56 5.6 5.6v9.12z"></path>
</symbol>
<symbol id="hamburger" viewBox="0 0 59 32">
<path d="M0 0h59.077v2.462h-59.077zM0 14.769h59.077v2.462h-59.077zM0 29.538h59.077v2.462h-59.077z"></path>
</symbol>
<symbol id="github" viewBox="0 0 33 32">
<path d="M16.667 0c-9.208 0-16.667 7.347-16.667 16.407 0 7.249 4.775 13.397 11.396 15.565 0.833 0.155 1.139-0.353 1.139-0.789 0-0.389-0.013-1.421-0.021-2.789-4.636 0.989-5.613-2.2-5.613-2.2-0.759-1.893-1.853-2.4-1.853-2.4-1.511-1.019 0.116-0.997 0.116-0.997 1.673 0.115 2.552 1.691 2.552 1.691 1.487 2.508 3.903 1.784 4.855 1.365 0.151-1.063 0.579-1.784 1.056-2.195-3.701-0.411-7.592-1.821-7.592-8.107 0-1.791 0.645-3.253 1.715-4.403-0.187-0.413-0.749-2.083 0.147-4.341 0 0 1.396-0.44 4.583 1.681 1.333-0.364 2.751-0.545 4.167-0.553 1.417 0.008 2.833 0.189 4.167 0.553 3.167-2.121 4.563-1.681 4.563-1.681 0.896 2.259 0.333 3.927 0.167 4.341 1.063 1.148 1.708 2.612 1.708 4.403 0 6.303-3.895 7.689-7.604 8.093 0.584 0.492 1.125 1.497 1.125 3.035 0 2.196-0.021 3.96-0.021 4.493 0 0.429 0.293 0.943 1.147 0.779 6.667-2.153 11.439-8.307 11.439-15.544 0-9.061-7.463-16.407-16.667-16.407z"></path>
</symbol>
<symbol id="down-arrows" viewBox="0 0 37 32">
<path fill="none" stroke="#5fb4a2" style="stroke: var(--color1, #5fb4a2)" stroke-linejoin="miter" stroke-linecap="butt" stroke-miterlimit="4" stroke-width="2.2857" d="M0 20.571l18.286 9.143 18.286-9.143"></path>
<path fill="none" opacity="0.5" stroke="#5fb4a2" style="stroke: var(--color1, #5fb4a2)" stroke-linejoin="miter" stroke-linecap="butt" stroke-miterlimit="4" stroke-width="2.2857" d="M0 11.429l18.286 9.143 18.286-9.143"></path>
<path fill="none" opacity="0.25" stroke="#5fb4a2" style="stroke: var(--color1, #5fb4a2)" stroke-linejoin="miter" stroke-linecap="butt" stroke-miterlimit="4" stroke-width="2.2857" d="M0 2.286l18.286 9.143 18.286-9.143"></path>
</symbol>
<symbol id="close" viewBox="0 0 30 32">
<path d="M28.854 1.113l1.191 1.191-13.696 13.696 13.696 13.696-1.191 1.191-13.696-13.696-13.696 13.698-1.191-1.191 13.696-13.698-13.696-13.696 1.191-1.191 13.696 13.696 13.696-13.696z"></path>
</symbol>
<symbol id="arrow-right" viewBox="0 0 20 32">
<path stroke-linejoin="miter" stroke-linecap="butt" stroke-miterlimit="4" stroke-width="2" d="M2 0l16 16-16 16"></path>
</symbol>
<symbol id="arrow-left" viewBox="0 0 20 32">
<path stroke-linejoin="miter" stroke-linecap="butt" stroke-miterlimit="4" stroke-width="2" d="M18 0l-16 16 16 16"></path>
</symbol>
</defs>
</svg>
