<!-- Generated by IcoMoon.io -->
<svg version="1.1" xmlns="http://www.w3.org/2000/svg" width="33" height="32" viewBox="0 0 33 32">
<title>github</title>
<path d="M16.667 0c-9.208 0-16.667 7.347-16.667 16.407 0 7.249 4.775 13.397 11.396 15.565 0.833 0.155 1.139-0.353 1.139-0.789 0-0.389-0.013-1.421-0.021-2.789-4.636 0.989-5.613-2.2-5.613-2.2-0.759-1.893-1.853-2.4-1.853-2.4-1.511-1.019 0.116-0.997 0.116-0.997 1.673 0.115 2.552 1.691 2.552 1.691 1.487 2.508 3.903 1.784 4.855 1.365 0.151-1.063 0.579-1.784 1.056-2.195-3.701-0.411-7.592-1.821-7.592-8.107 0-1.791 0.645-3.253 1.715-4.403-0.187-0.413-0.749-2.083 0.147-4.341 0 0 1.396-0.44 4.583 1.681 1.333-0.364 2.751-0.545 4.167-0.553 1.417 0.008 2.833 0.189 4.167 0.553 3.167-2.121 4.563-1.681 4.563-1.681 0.896 2.259 0.333 3.927 0.167 4.341 1.063 1.148 1.708 2.612 1.708 4.403 0 6.303-3.895 7.689-7.604 8.093 0.584 0.492 1.125 1.497 1.125 3.035 0 2.196-0.021 3.96-0.021 4.493 0 0.429 0.293 0.943 1.147 0.779 6.667-2.153 11.439-8.307 11.439-15.544 0-9.061-7.463-16.407-16.667-16.407z"></path>
</svg>
